<?xml version="1.0"?>
<svg xmlns="http://www.w3.org/2000/svg" viewBox="0 0 80 80">
    <path d="M 40 8 A 1 1 0 0 0 39 9 A 1 1 0 0 0 40 10 A 1 1 0 0 0 41 9 A 1 1 0 0 0 40 8 z M 39 12 L 39 15 L 37 15 L 37 17 L 39 17 L 39 19 L 38 19 L 38 21 L 39 21 L 39 25 L 34 25 C 31.250484 25 29 27.250484 29 30 L 29 35 L 27 35 L 27 33 L 19.585938 33 L 15.953125 36.632812 L 8.6582031 30.248047 L 7.3417969 31.751953 L 14.537109 38.048828 L 11 41.585938 L 11 46 L 3 46 L 3 52 L 5.0546875 52 L 12.609375 63.689453 C 12.271497 63.814687 11.944933 63.945855 11.628906 64.072266 C 10.378906 64.572266 9.2777778 65 8 65 A 1.0001 1.0001 0 1 0 8 67 C 9.7222222 67 11.121094 66.427734 12.371094 65.927734 C 13.621094 65.427734 14.722222 65 16 65 C 17.277778 65 18.378906 65.427734 19.628906 65.927734 C 20.878906 66.427734 22.277778 67 24 67 C 25.722222 67 27.121094 66.427734 28.371094 65.927734 C 29.621094 65.427734 30.722222 65 32 65 C 33.277778 65 34.378906 65.427734 35.628906 65.927734 C 36.878906 66.427734 38.277778 67 40 67 C 41.722222 67 43.121094 66.427734 44.371094 65.927734 C 45.621094 65.427734 46.722222 65 48 65 C 49.277778 65 50.378906 65.427734 51.628906 65.927734 C 52.878906 66.427734 54.277778 67 56 67 C 57.722222 67 59.121094 66.427734 60.371094 65.927734 C 61.621094 65.427734 62.722222 65 64 65 C 65.277778 65 66.378906 65.427734 67.628906 65.927734 C 68.878906 66.427734 70.277778 67 72 67 A 1.0001 1.0001 0 1 0 72 65 C 70.722222 65 69.621094 64.572266 68.371094 64.072266 C 68.055067 63.945855 67.728503 63.814687 67.390625 63.689453 L 74.945312 52 L 77 52 L 77 46 L 67 46 L 67 39.585938 L 64.613281 37.199219 L 71.013672 33.357422 L 69.986328 31.642578 L 63.15625 35.742188 L 60.414062 33 L 60 33 L 53 33 L 53 35 L 51 35 L 51 30 C 51 27.250484 48.749516 25 46 25 L 41 25 L 41 21 L 42 21 L 42 19 L 41 19 L 41 17 L 43 17 L 43 15 L 41 15 L 41 12 L 39 12 z M 34 27 L 46 27 C 47.668484 27 49 28.331516 49 30 L 49 37 L 55 37 L 55 35 L 59.585938 35 L 65 40.414062 L 65 46 L 13 46 L 13 42.414062 L 20.414062 35 L 25 35 L 25 37 L 31 37 L 31 30 C 31 28.331516 32.331516 27 34 27 z M 34 35 A 1 1 0 0 0 33 36 A 1 1 0 0 0 34 37 A 1 1 0 0 0 35 36 A 1 1 0 0 0 34 35 z M 38 35 A 1 1 0 0 0 37 36 A 1 1 0 0 0 38 37 A 1 1 0 0 0 39 36 A 1 1 0 0 0 38 35 z M 42 35 A 1 1 0 0 0 41 36 A 1 1 0 0 0 42 37 A 1 1 0 0 0 43 36 A 1 1 0 0 0 42 35 z M 46 35 A 1 1 0 0 0 45 36 A 1 1 0 0 0 46 37 A 1 1 0 0 0 47 36 A 1 1 0 0 0 46 35 z M 26 39 A 1 1 0 0 0 25 40 A 1 1 0 0 0 26 41 A 1 1 0 0 0 27 40 A 1 1 0 0 0 26 39 z M 54 39 A 1 1 0 0 0 53 40 A 1 1 0 0 0 54 41 A 1 1 0 0 0 55 40 A 1 1 0 0 0 54 39 z M 26 43 A 1 1 0 0 0 25 44 A 1 1 0 0 0 26 45 A 1 1 0 0 0 27 44 A 1 1 0 0 0 26 43 z M 54 43 A 1 1 0 0 0 53 44 A 1 1 0 0 0 54 45 A 1 1 0 0 0 55 44 A 1 1 0 0 0 54 43 z M 5 48 L 75 48 L 75 50 L 73.855469 50 L 65.373047 63.128906 C 64.936682 63.052969 64.483468 63 64 63 C 62.277778 63 60.878906 63.572266 59.628906 64.072266 C 58.378906 64.572266 57.277778 65 56 65 C 54.722222 65 53.621094 64.572266 52.371094 64.072266 C 51.121094 63.572266 49.722222 63 48 63 C 46.277778 63 44.878906 63.572266 43.628906 64.072266 C 42.378906 64.572266 41.277778 65 40 65 C 38.722222 65 37.621094 64.572266 36.371094 64.072266 C 35.121094 63.572266 33.722222 63 32 63 C 30.277778 63 28.878906 63.572266 27.628906 64.072266 C 26.378906 64.572266 25.277778 65 24 65 C 22.722222 65 21.621094 64.572266 20.371094 64.072266 C 19.121094 63.572266 17.722222 63 16 63 C 15.516532 63 15.063318 63.052969 14.626953 63.128906 L 6.1445312 50 L 5 50 L 5 48 z M 10 50 A 1 1 0 0 0 9 51 A 1 1 0 0 0 10 52 A 1 1 0 0 0 11 51 A 1 1 0 0 0 10 50 z M 14 50 A 1 1 0 0 0 13 51 A 1 1 0 0 0 14 52 A 1 1 0 0 0 15 51 A 1 1 0 0 0 14 50 z M 18 50 A 1 1 0 0 0 17 51 A 1 1 0 0 0 18 52 A 1 1 0 0 0 19 51 A 1 1 0 0 0 18 50 z M 22 50 A 1 1 0 0 0 21 51 A 1 1 0 0 0 22 52 A 1 1 0 0 0 23 51 A 1 1 0 0 0 22 50 z M 26 50 A 1 1 0 0 0 25 51 A 1 1 0 0 0 26 52 A 1 1 0 0 0 27 51 A 1 1 0 0 0 26 50 z M 30 50 A 1 1 0 0 0 29 51 A 1 1 0 0 0 30 52 A 1 1 0 0 0 31 51 A 1 1 0 0 0 30 50 z M 34 50 A 1 1 0 0 0 33 51 A 1 1 0 0 0 34 52 A 1 1 0 0 0 35 51 A 1 1 0 0 0 34 50 z M 38 50 A 1 1 0 0 0 37 51 A 1 1 0 0 0 38 52 A 1 1 0 0 0 39 51 A 1 1 0 0 0 38 50 z M 42 50 A 1 1 0 0 0 41 51 A 1 1 0 0 0 42 52 A 1 1 0 0 0 43 51 A 1 1 0 0 0 42 50 z M 46 50 A 1 1 0 0 0 45 51 A 1 1 0 0 0 46 52 A 1 1 0 0 0 47 51 A 1 1 0 0 0 46 50 z M 50 50 A 1 1 0 0 0 49 51 A 1 1 0 0 0 50 52 A 1 1 0 0 0 51 51 A 1 1 0 0 0 50 50 z M 54 50 A 1 1 0 0 0 53 51 A 1 1 0 0 0 54 52 A 1 1 0 0 0 55 51 A 1 1 0 0 0 54 50 z M 58 50 A 1 1 0 0 0 57 51 A 1 1 0 0 0 58 52 A 1 1 0 0 0 59 51 A 1 1 0 0 0 58 50 z M 62 50 A 1 1 0 0 0 61 51 A 1 1 0 0 0 62 52 A 1 1 0 0 0 63 51 A 1 1 0 0 0 62 50 z M 66 50 A 1 1 0 0 0 65 51 A 1 1 0 0 0 66 52 A 1 1 0 0 0 67 51 A 1 1 0 0 0 66 50 z M 70 50 A 1 1 0 0 0 69 51 A 1 1 0 0 0 70 52 A 1 1 0 0 0 71 51 A 1 1 0 0 0 70 50 z M 60 55 A 1 1 0 0 0 59 56 A 1 1 0 0 0 60 57 A 1 1 0 0 0 61 56 A 1 1 0 0 0 60 55 z M 64 55 A 1 1 0 0 0 63 56 A 1 1 0 0 0 64 57 A 1 1 0 0 0 65 56 A 1 1 0 0 0 64 55 z"/>
</svg>
